<svg width="150" height="55" viewBox="0 0 150 55" fill="none" xmlns="http://www.w3.org/2000/svg">
<path fill-rule="evenodd" clip-rule="evenodd" d="M133.358 27.3201C127.428 27.3201 123.198 22.9763 123.198 16.7939C123.198 10.6113 127.428 6.26757 133.358 6.26757C139.289 6.26757 143.52 10.6113 143.52 16.7939C143.52 22.9763 139.289 27.3201 133.358 27.3201ZM133.358 2.34036C125.063 2.34036 118.967 8.60622 118.967 16.7939C118.967 24.9812 125.063 31.2465 133.358 31.2465C141.654 31.2465 147.75 24.9812 147.75 16.7939C147.75 8.60622 141.654 2.34036 133.358 2.34036ZM116.22 2.84214L108.505 21.0244L100.791 2.84214H96.2296L108.505 31.331L120.782 2.84214H116.22ZM89.5028 31.0324H93.7335V2.84214H89.5028V31.0324ZM78.0462 25.0589C75.6399 26.8549 72.7787 27.0222 70.7048 27.0222H68.8802V6.8523H70.7048C72.7371 6.8523 75.6812 7.01874 78.0875 8.77357C80.0781 10.2357 81.8194 13.1175 81.8194 16.7939C81.8194 20.5947 79.9534 23.5968 78.0462 25.0589ZM80.7416 5.55746C77.6724 3.25951 74.3129 2.84214 70.4557 2.84214H64.6496V31.0324H70.3727C74.2302 31.0324 77.2573 30.6567 80.4924 28.3588C84.1425 25.7692 86.0505 21.4303 86.0505 16.7939C86.0505 12.1572 84.1012 8.10525 80.7416 5.55746ZM47.3505 27.3201C41.4196 27.3201 37.1898 22.9763 37.1898 16.7939C37.1898 10.6113 41.4196 6.26757 47.3505 6.26757C53.2809 6.26757 57.5118 10.6113 57.5118 16.7939C57.5118 22.9763 53.2809 27.3201 47.3505 27.3201ZM47.3505 2.34036C39.056 2.34036 32.959 8.60622 32.959 16.7939C32.959 24.9812 39.056 31.2465 47.3505 31.2465C55.6454 31.2465 61.7424 24.9812 61.7424 16.7939C61.7424 8.60622 55.6454 2.34036 47.3505 2.34036ZM16.6567 25.6037L7.30678 0.753426L1.5 31.1419H5.81364L8.71618 16.5349L16.6793 38.4247L24.7253 16.5766L27.5459 31.1419H31.8587L26.633 0.753426L16.6567 25.6037Z" fill="#222222"/>
<path d="M43.6778 47.4181C43.6778 46.8301 43.5578 46.3141 43.3058 45.8821C43.0538 45.4501 42.7298 45.1141 42.3218 44.8861C41.9018 44.6581 41.4458 44.5381 40.9418 44.5381C40.5338 44.5381 40.1738 44.6341 39.8498 44.8141C39.5258 44.9941 39.2618 45.2581 39.0578 45.6061V40.8181H38.0978V50.1781H39.0578V49.2301C39.2618 49.5781 39.5258 49.8421 39.8498 50.0221C40.1738 50.2021 40.5338 50.2981 40.9418 50.2981C41.4458 50.2981 41.9018 50.1781 42.3218 49.9501C42.7298 49.7221 43.0538 49.3861 43.3058 48.9541C43.5578 48.5221 43.6778 48.0061 43.6778 47.4181ZM42.7058 47.4181C42.7058 47.8381 42.6218 48.1981 42.4418 48.4981C42.2738 48.7981 42.0458 49.0141 41.7698 49.1701C41.4818 49.3261 41.1698 49.3981 40.8218 49.3981C40.5458 49.3981 40.2698 49.3261 39.9938 49.1701C39.7178 49.0141 39.5018 48.7981 39.3218 48.4981C39.1418 48.1981 39.0578 47.8381 39.0578 47.4181C39.0578 46.9981 39.1418 46.6381 39.3218 46.3381C39.5018 46.0381 39.7178 45.8221 39.9938 45.6661C40.2698 45.5101 40.5458 45.4381 40.8218 45.4381C41.1698 45.4381 41.4818 45.5101 41.7698 45.6661C42.0458 45.8221 42.2738 46.0381 42.4418 46.3381C42.6218 46.6381 42.7058 46.9981 42.7058 47.4181ZM49.2058 44.6581H48.1258L46.6138 48.4621L45.0658 44.6581H43.9258L46.0378 49.3981L44.5258 52.8181H45.6058L49.2058 44.6581ZM57.5246 46.8421H54.2366C54.2846 46.3981 54.4766 46.0381 54.8006 45.7741C55.1366 45.5101 55.5206 45.3781 55.9646 45.3781C56.4446 45.3781 56.8166 45.5101 57.0686 45.7861C57.3206 46.0621 57.4766 46.4101 57.5246 46.8421ZM54.2126 47.6581H58.5566C58.5686 47.6101 58.5686 47.5621 58.5686 47.5141C58.5686 47.4661 58.5686 47.4181 58.5686 47.3701C58.5686 46.7941 58.4606 46.2901 58.2446 45.8701C58.0286 45.4501 57.7286 45.1141 57.3326 44.8861C56.9366 44.6581 56.4806 44.5381 55.9646 44.5381C55.4966 44.5381 55.0646 44.6341 54.6806 44.8261C54.3086 45.0181 53.9966 45.2821 53.7446 45.6301C53.5046 45.9781 53.3486 46.3741 53.2766 46.8301C53.2646 46.9261 53.2526 47.0221 53.2406 47.1181C53.2286 47.2141 53.2286 47.3101 53.2286 47.4181C53.2286 47.9821 53.3366 48.4741 53.5766 48.9061C53.7926 49.3381 54.1046 49.6741 54.5006 49.9261C54.8966 50.1781 55.3406 50.2981 55.8446 50.2981C56.3126 50.2981 56.7206 50.2381 57.0326 50.1301C57.3686 50.0101 57.6326 49.8421 57.8606 49.6261C58.0886 49.4221 58.2926 49.1701 58.4726 48.8941L57.6926 48.4021C57.5126 48.7021 57.2726 48.9541 56.9846 49.1221C56.7086 49.3141 56.3606 49.3981 55.9646 49.3981C55.4606 49.3981 55.0526 49.2421 54.7406 48.9541C54.4286 48.6421 54.2486 48.2221 54.2126 47.6581ZM59.4044 47.4181C59.4044 47.9821 59.5364 48.4741 59.7764 48.9061C60.0404 49.3381 60.3764 49.6741 60.8084 49.9261C61.2404 50.1781 61.7204 50.2981 62.2604 50.2981C62.8004 50.2981 63.2804 50.1781 63.7124 49.9261C64.1444 49.6741 64.4804 49.3381 64.7444 48.9061C64.9844 48.4741 65.1164 47.9821 65.1164 47.4181C65.1164 46.8541 64.9844 46.3621 64.7444 45.9301C64.4804 45.4981 64.1444 45.1621 63.7124 44.9101C63.2804 44.6581 62.8004 44.5381 62.2604 44.5381C61.7204 44.5381 61.2404 44.6581 60.8084 44.9101C60.3764 45.1621 60.0404 45.4981 59.7764 45.9301C59.5364 46.3621 59.4044 46.8541 59.4044 47.4181ZM60.3764 47.4181C60.3764 47.0341 60.4604 46.6981 60.6164 46.3981C60.7844 46.0981 61.0124 45.8701 61.2884 45.6901C61.5764 45.5221 61.9004 45.4381 62.2604 45.4381C62.6204 45.4381 62.9444 45.5221 63.2324 45.6901C63.5084 45.8701 63.7364 46.0981 63.9044 46.3981C64.0604 46.6981 64.1444 47.0341 64.1444 47.4181C64.1444 47.8021 64.0604 48.1381 63.9044 48.4381C63.7364 48.7381 63.5084 48.9661 63.2324 49.1461C62.9444 49.3141 62.6204 49.3981 62.2604 49.3981C61.9004 49.3981 61.5764 49.3141 61.2884 49.1461C61.0124 48.9661 60.7844 48.7381 60.6164 48.4381C60.4604 48.1381 60.3764 47.8021 60.3764 47.4181ZM71.9552 47.4181C71.9552 46.8301 71.8352 46.3141 71.5832 45.8821C71.3312 45.4501 71.0072 45.1141 70.5992 44.8861C70.1792 44.6581 69.7232 44.5381 69.2192 44.5381C68.8112 44.5381 68.4512 44.6341 68.1272 44.8141C67.8032 44.9941 67.5392 45.2581 67.3352 45.6061V40.8181H66.3752V50.1781H67.3352V49.2301C67.5392 49.5781 67.8032 49.8421 68.1272 50.0221C68.4512 50.2021 68.8112 50.2981 69.2192 50.2981C69.7232 50.2981 70.1792 50.1781 70.5992 49.9501C71.0072 49.7221 71.3312 49.3861 71.5832 48.9541C71.8352 48.5221 71.9552 48.0061 71.9552 47.4181ZM70.9832 47.4181C70.9832 47.8381 70.8992 48.1981 70.7192 48.4981C70.5512 48.7981 70.3232 49.0141 70.0472 49.1701C69.7592 49.3261 69.4472 49.3981 69.0992 49.3981C68.8232 49.3981 68.5472 49.3261 68.2712 49.1701C67.9952 49.0141 67.7792 48.7981 67.5992 48.4981C67.4192 48.1981 67.3352 47.8381 67.3352 47.4181C67.3352 46.9981 67.4192 46.6381 67.5992 46.3381C67.7792 46.0381 67.9952 45.8221 68.2712 45.6661C68.5472 45.5101 68.8232 45.4381 69.0992 45.4381C69.4472 45.4381 69.7592 45.5101 70.0472 45.6661C70.3232 45.8221 70.5512 46.0381 70.7192 46.3381C70.8992 46.6381 70.9832 46.9981 70.9832 47.4181ZM74.2389 48.0181V44.6581H73.2789V48.1381C73.2789 48.8461 73.4589 49.3861 73.7949 49.7461C74.1549 50.1181 74.6109 50.2981 75.1749 50.2981C75.5349 50.2981 75.8589 50.2021 76.1469 50.0341C76.4229 49.8421 76.6509 49.6021 76.8189 49.3021V50.1781H77.7789V44.6581H76.8189V48.0181C76.8189 48.4141 76.6869 48.7501 76.4349 49.0021C76.1829 49.2661 75.8349 49.3981 75.4149 49.3981C74.6349 49.3981 74.2389 48.9421 74.2389 48.0181ZM78.7436 44.6581L81.1436 50.5981L82.7156 46.5781L84.3836 50.5981L86.7836 44.6581H85.7036L84.3116 48.2701L82.7036 44.2381L81.2036 48.2461L79.8236 44.6581H78.7436ZM87.7398 42.3781C87.7398 42.5581 87.7998 42.7141 87.9438 42.8341C88.0638 42.9781 88.2198 43.0381 88.3998 43.0381C88.5798 43.0381 88.7358 42.9781 88.8558 42.8341C88.9998 42.7141 89.0598 42.5581 89.0598 42.3781C89.0598 42.1981 88.9998 42.0421 88.8558 41.9221C88.7358 41.7781 88.5798 41.7181 88.3998 41.7181C88.2198 41.7181 88.0638 41.7781 87.9438 41.9221C87.7998 42.0421 87.7398 42.1981 87.7398 42.3781ZM87.9198 44.6581V50.1781H88.8798V44.6581H87.9198ZM94.673 46.8421H91.385C91.433 46.3981 91.625 46.0381 91.949 45.7741C92.285 45.5101 92.669 45.3781 93.113 45.3781C93.593 45.3781 93.965 45.5101 94.217 45.7861C94.469 46.0621 94.625 46.4101 94.673 46.8421ZM91.361 47.6581H95.705C95.717 47.6101 95.717 47.5621 95.717 47.5141C95.717 47.4661 95.717 47.4181 95.717 47.3701C95.717 46.7941 95.609 46.2901 95.393 45.8701C95.177 45.4501 94.877 45.1141 94.481 44.8861C94.085 44.6581 93.629 44.5381 93.113 44.5381C92.645 44.5381 92.213 44.6341 91.829 44.8261C91.457 45.0181 91.145 45.2821 90.893 45.6301C90.653 45.9781 90.497 46.3741 90.425 46.8301C90.413 46.9261 90.401 47.0221 90.389 47.1181C90.377 47.2141 90.377 47.3101 90.377 47.4181C90.377 47.9821 90.485 48.4741 90.725 48.9061C90.941 49.3381 91.253 49.6741 91.649 49.9261C92.045 50.1781 92.489 50.2981 92.993 50.2981C93.461 50.2981 93.869 50.2381 94.181 50.1301C94.517 50.0101 94.781 49.8421 95.009 49.6261C95.237 49.4221 95.441 49.1701 95.621 48.8941L94.841 48.4021C94.661 48.7021 94.421 48.9541 94.133 49.1221C93.857 49.3141 93.509 49.3981 93.113 49.3981C92.609 49.3981 92.201 49.2421 91.889 48.9541C91.577 48.6421 91.397 48.2221 91.361 47.6581ZM96.6752 49.6981C96.6752 49.8781 96.7352 50.0341 96.8792 50.1541C96.9992 50.2981 97.1552 50.3581 97.3352 50.3581C97.5152 50.3581 97.6712 50.2981 97.7912 50.1541C97.9352 50.0341 97.9952 49.8781 97.9952 49.6981C97.9952 49.5181 97.9352 49.3621 97.7912 49.2421C97.6712 49.0981 97.5152 49.0381 97.3352 49.0381C97.1552 49.0381 96.9992 49.0981 96.8792 49.2421C96.7352 49.3621 96.6752 49.5181 96.6752 49.6981ZM105.553 47.4181C105.553 46.8301 105.433 46.3141 105.181 45.8821C104.929 45.4501 104.605 45.1141 104.197 44.8861C103.777 44.6581 103.321 44.5381 102.817 44.5381C102.409 44.5381 102.049 44.6341 101.725 44.8141C101.401 44.9941 101.137 45.2581 100.933 45.6061V44.6581H99.9728V52.8181H100.933V49.2301C101.137 49.5781 101.401 49.8421 101.725 50.0221C102.049 50.2021 102.409 50.2981 102.817 50.2981C103.321 50.2981 103.777 50.1781 104.197 49.9501C104.605 49.7221 104.929 49.3861 105.181 48.9541C105.433 48.5221 105.553 48.0061 105.553 47.4181ZM104.581 47.4181C104.581 47.8381 104.497 48.1981 104.317 48.4981C104.149 48.7981 103.921 49.0141 103.645 49.1701C103.357 49.3261 103.045 49.3981 102.697 49.3981C102.421 49.3981 102.145 49.3261 101.869 49.1701C101.593 49.0141 101.377 48.7981 101.197 48.4981C101.017 48.1981 100.933 47.8381 100.933 47.4181C100.933 46.9981 101.017 46.6381 101.197 46.3381C101.377 46.0381 101.593 45.8221 101.869 45.6661C102.145 45.5101 102.421 45.4381 102.697 45.4381C103.045 45.4381 103.357 45.5101 103.645 45.6661C103.921 45.8221 104.149 46.0381 104.317 46.3381C104.497 46.6381 104.581 46.9981 104.581 47.4181ZM106.877 40.8181V50.1781H107.837V40.8181H106.877Z" fill="#222222"/>
</svg>
